<?xml version="1.0" standalone="no"?>
<!DOCTYPE svg PUBLIC "-//W3C//DTD SVG 20010904//EN"
 "http://www.w3.org/TR/2001/REC-SVG-20010904/DTD/svg10.dtd">
<svg version="1.0" xmlns="http://www.w3.org/2000/svg"
 width="640.000000pt" height="640.000000pt" viewBox="0 0 640.000000 640.000000"
 preserveAspectRatio="xMidYMid meet">
<metadata>
Created by potrace 1.11, written by Peter Selinger 2001-2013
</metadata>
<g transform="translate(0.000000,640.000000) scale(0.100000,-0.100000)"
fill="#000000" stroke="none">
<path d="M2740 6383 c-30 -8 -71 -18 -90 -23 -478 -125 -860 -405 -1136 -835
-233 -364 -342 -823 -304 -1285 20 -249 28 -302 54 -400 14 -52 26 -105 26
-117 0 -12 9 -46 19 -75 10 -29 22 -72 25 -95 8 -56 25 -91 46 -98 25 -8 30
-34 31 -160 1 -197 38 -584 62 -655 8 -25 18 -67 22 -95 3 -27 10 -66 15 -85
5 -19 16 -66 25 -105 68 -292 196 -651 302 -850 51 -93 134 -217 192 -284 36
-42 72 -83 79 -92 10 -13 6 -29 -22 -92 l-35 -75 -253 -82 c-360 -116 -485
-155 -553 -175 -33 -10 -91 -28 -130 -40 -38 -12 -97 -30 -130 -40 -33 -9 -71
-21 -85 -25 -14 -5 -59 -18 -100 -30 -309 -90 -497 -171 -547 -233 -15 -19
-23 -22 -53 -15 -60 13 -97 0 -133 -46 -53 -67 -67 -108 -67 -196 l0 -80 3200
0 3200 0 0 72 c0 53 -6 88 -25 134 -32 80 -92 181 -119 199 -27 19 -89 19
-126 0 -28 -15 -33 -13 -141 40 -61 30 -143 67 -183 81 -173 64 -277 101 -516
185 -356 126 -392 139 -415 150 -11 5 -146 56 -299 114 -153 58 -285 113 -292
123 -11 14 -3 27 61 97 40 44 98 118 130 165 110 162 245 465 315 710 12 41
25 85 31 98 5 13 9 32 9 43 0 10 4 27 9 37 12 23 35 116 56 227 9 50 20 104
26 121 5 17 9 40 9 52 0 12 4 30 10 40 8 15 15 80 40 407 5 61 9 155 9 210 1
111 7 145 26 145 23 0 36 27 46 97 6 37 15 72 20 78 5 5 9 17 9 27 0 10 5 18
10 18 6 0 10 16 10 35 0 45 26 173 44 217 8 18 14 52 14 76 1 24 6 78 13 120
16 100 16 463 0 572 -68 473 -221 800 -535 1143 -204 224 -506 413 -796 498
-234 69 -231 69 -662 68 -309 -1 -405 -4 -448 -16z m-277 -1048 c50 -8 139
-29 197 -46 133 -40 298 -58 540 -58 231 0 403 19 545 58 177 50 312 66 420
52 187 -26 248 -54 372 -177 79 -77 98 -103 133 -176 91 -194 143 -500 119
-699 -14 -122 -10 -140 50 -224 l36 -49 -1 -131 c0 -75 -8 -168 -17 -219 -10
-49 -17 -90 -17 -92 0 -2 -30 -20 -67 -40 -227 -125 -341 -234 -433 -413 -27
-54 -94 -267 -114 -366 -37 -176 -41 -205 -66 -420 -18 -152 -26 -205 -33
-211 -9 -9 -5 -16 -72 111 -124 236 -151 259 -360 301 -38 8 -106 21 -150 30
-156 31 -233 20 -308 -46 l-37 -32 -44 37 c-82 67 -149 75 -316 39 -36 -8 -96
-21 -135 -29 -187 -38 -239 -73 -311 -212 -94 -180 -107 -203 -115 -203 -11 0
-13 15 -33 180 -9 74 -23 169 -30 210 -28 151 -35 186 -50 250 -8 36 -21 98
-30 138 -21 98 -88 265 -130 328 -19 28 -56 73 -83 100 -53 53 -198 156 -278
197 -27 14 -58 31 -67 39 -29 22 -52 157 -52 313 -1 150 1 159 61 225 31 34
37 74 23 166 -12 79 -8 202 10 299 59 314 111 447 222 573 115 129 200 178
358 205 57 10 176 6 263 -8z m1162 -3117 c155 -47 206 -112 186 -235 -16 -106
-91 -174 -258 -234 -32 -11 -67 -25 -78 -30 -11 -5 -45 -18 -75 -28 -44 -16
-56 -17 -58 -6 -5 20 142 248 201 312 23 25 17 40 -10 28 -21 -9 -15 -8 -124
-30 -124 -24 -457 -12 -507 19 -7 4 -21 4 -33 1 -19 -6 -18 -9 14 -48 89 -111
177 -253 177 -289 0 -10 -25 -4 -80 19 -57 24 -72 30 -145 57 -152 56 -231
129 -246 229 -10 63 2 115 38 157 70 83 169 99 613 95 265 -2 345 -5 385 -17z
m-205 -1377 c0 -6 -4 -13 -10 -16 -5 -3 -19 -36 -30 -73 -18 -56 -20 -81 -15
-152 6 -75 23 -174 41 -236 5 -20 1 -21 -113 -27 -65 -4 -131 -10 -147 -13
l-28 -7 6 74 c3 41 9 130 12 199 l6 125 -35 68 -36 67 175 0 c102 0 174 -4
174 -9z"/>
<path d="M2080 4221 c-67 -10 -122 -27 -169 -54 -51 -30 -143 -98 -139 -103 3
-2 27 7 54 20 89 43 144 57 228 57 100 0 148 -9 318 -61 73 -23 166 -50 205
-61 91 -24 262 -30 286 -10 53 44 -24 93 -208 134 -38 9 -111 25 -162 37 -195
43 -311 55 -413 41z"/>
<path d="M4100 4219 c-49 -8 -117 -22 -355 -76 -142 -31 -225 -70 -225 -104 0
-35 29 -44 132 -42 104 3 154 14 376 83 170 52 218 61 318 61 83 0 139 -14
227 -56 26 -13 47 -20 47 -17 -1 9 -84 72 -133 100 -21 12 -63 29 -93 38 -62
18 -216 25 -294 13z"/>
<path d="M2079 3923 c-138 -26 -179 -85 -140 -198 36 -102 130 -178 263 -214
73 -20 318 -3 403 28 25 9 21 10 -30 5 -108 -11 -115 -9 -83 16 55 42 86 167
57 222 -10 19 -9 20 16 14 57 -14 139 -76 186 -139 24 -34 28 -36 34 -18 14
46 -43 128 -131 186 -151 101 -370 138 -575 98z m164 -69 c3 -4 -2 -17 -12
-30 -32 -40 -45 -117 -31 -171 12 -41 70 -113 92 -113 4 0 8 -4 8 -9 0 -14
-121 18 -171 46 -65 35 -115 86 -135 140 -20 52 -14 68 35 96 42 25 200 55
214 41z m279 -59 c8 -18 8 -29 1 -36 -13 -13 -36 -2 -28 12 4 5 1 9 -5 9 -6 0
-8 5 -4 12 4 6 3 8 -3 5 -6 -4 -16 0 -23 8 -11 13 -8 15 19 15 24 0 34 -6 43
-25z m-233 -204 c7 -5 11 -14 7 -19 -9 -15 -36 -4 -36 14 0 16 9 18 29 5z"/>
<path d="M4020 3933 c-63 -11 -176 -46 -223 -69 -103 -52 -197 -153 -197 -211
0 -27 26 -31 34 -5 11 34 84 97 151 131 37 18 69 31 71 28 3 -2 0 -16 -6 -31
-16 -42 -12 -100 9 -149 21 -48 64 -86 54 -47 -4 14 0 20 10 20 24 0 29 -16
15 -42 -7 -13 -14 -25 -15 -26 -3 -7 -158 21 -167 29 -12 11 -46 12 -46 1 0
-18 169 -50 314 -59 107 -6 182 6 251 40 139 69 227 227 172 310 -23 36 -65
56 -154 73 -69 13 -215 17 -273 7z m240 -89 c54 -8 121 -36 139 -58 21 -25 0
-83 -49 -139 -47 -53 -147 -107 -198 -107 l-35 0 35 36 c21 20 41 54 48 78 17
62 -2 134 -25 96 -9 -14 -21 -12 -39 6 -9 8 -20 13 -25 10 -5 -3 -12 10 -15
29 -4 19 -14 39 -24 45 -13 8 -6 10 30 8 26 -1 51 2 55 5 4 4 19 6 33 3 14 -3
45 -8 70 -12z"/>
<path d="M2640 3560 c0 -5 9 -10 21 -10 11 0 17 5 14 10 -3 6 -13 10 -21 10
-8 0 -14 -4 -14 -10z"/>
</g>
</svg>
