<?xml version="1.0" encoding="UTF-8" standalone="no"?>
<!-- Generator: Adobe Illustrator 19.1.0, SVG Export Plug-In . SVG Version: 6.00 Build 0)  -->
<svg xmlns:dc="http://purl.org/dc/elements/1.1/" xmlns:cc="http://creativecommons.org/ns#" xmlns:rdf="http://www.w3.org/1999/02/22-rdf-syntax-ns#" xmlns:svg="http://www.w3.org/2000/svg" xmlns="http://www.w3.org/2000/svg" xmlns:sodipodi="http://sodipodi.sourceforge.net/DTD/sodipodi-0.dtd" xmlns:inkscape="http://www.inkscape.org/namespaces/inkscape" x="0px" y="0px" viewBox="0 0 595.3 595.3" style="enable-background:new 0 0 595.3 595.3;" xml:space="preserve" id="svg72" sodipodi:docname="logo_rm_noir.svg" inkscape:version="0.92.2 2405546, 2018-03-11" width="595" height="595"><metadata id="metadata78"/><defs id="defs76">
	
	
</defs>
<style type="text/css" id="style2">
	.st0{fill:#9D9D9C;}
	.st1{fill:#575756;}
</style>
<g id="Calque_2">
</g>
<g id="g13" transform="matrix(1.8928864,0,0,1.8928864,-264.72593,-165.92773)">
		<path inkscape:connector-curvature="0" id="path5" d="m 299.2,319.9 c 0,0 0,0 0,0 -0.1,-0.1 -0.2,-0.2 -0.2,-0.3 -0.1,-0.1 -0.1,-0.1 -0.2,-0.2 0,0 0,0 0,0 -0.1,0 -0.1,-0.1 -0.2,-0.1 -0.1,-0.1 -0.2,-0.1 -0.3,-0.2 -0.1,0 -0.2,-0.1 -0.3,-0.1 -0.1,0 -0.2,-0.1 -0.2,-0.1 -0.1,0 -0.2,0 -0.3,-0.1 -0.1,0 -0.2,0 -0.3,0 -0.1,0 -0.2,0 -0.3,0 -0.1,0 -0.2,0 -0.3,0 -0.1,0 -0.2,0 -0.3,0 -0.1,0 -0.2,0 -0.3,0.1 -0.1,0 -0.2,0.1 -0.2,0.1 -0.1,0 -0.2,0.1 -0.3,0.1 -0.1,0 -0.2,0.1 -0.3,0.2 -0.1,0 -0.1,0.1 -0.2,0.1 0,0 0,0 0,0 -0.1,0.1 -0.1,0.1 -0.2,0.2 -0.1,0.1 -0.2,0.2 -0.2,0.2 0,0 0,0 0,0 l -8.1,10.1 c -1,1.3 -0.8,3.1 0.5,4.1 0.5,0.4 1.2,0.6 1.8,0.6 0.9,0 1.7,-0.4 2.3,-1.1 l 0.1,-0.1 c 3,-3.7 8.6,-3.7 11.5,0 l 0.1,0.1 c 0.6,0.7 1.4,1.1 2.3,1.1 0.6,0 1.3,-0.2 1.8,-0.6 1.3,-1 1.5,-2.9 0.5,-4.1 z"/>
		<path inkscape:connector-curvature="0" id="path7" d="m 285.7,149.1 c -4.1,0 -7.5,3.2 -7.7,7.3 l -15.3,5.6 c -0.8,0.3 -1.4,1 -1.4,1.9 v 9.7 H 249 c -0.9,-3.3 -3.8,-5.7 -7.4,-5.7 -4.2,0 -7.7,3.4 -7.7,7.7 0,4.2 3.4,7.7 7.7,7.7 3.6,0 6.5,-2.4 7.4,-5.7 h 14.3 c 1.1,0 2,-0.9 2,-2 v -10.3 l 13.5,-5 c 1.3,2.5 3.9,4.2 6.8,4.2 4.2,0 7.7,-3.4 7.7,-7.7 0.1,-4.2 -3.4,-7.7 -7.6,-7.7 z"/>
		<path style="fill:#9d9d9c" inkscape:connector-curvature="0" id="path9" d="m 269.5,292.3 c -2.5,-0.9 -4.9,-1.8 -7.2,-2.8 -1.7,-0.8 -3.4,-1.6 -5,-2.4 3.8,3.8 13,10.6 22.9,10.8 0.6,-0.7 1.1,-1.4 1.5,-2.3 -1.5,-0.3 -3,-0.6 -4.5,-1 -2.7,-0.7 -5.2,-1.4 -7.7,-2.3 z" class="st0"/>
		<path inkscape:connector-curvature="0" id="path11" d="m 395,222.5 c 0,-4.7 -0.3,-9.4 -1,-13.9 0,-0.3 -0.1,-0.6 -0.1,-0.9 -6.1,-39.7 -36.2,-72.3 -75.8,-81 -1,-4.5 -5,-7.9 -9.8,-7.9 -5.6,0 -10.1,4.5 -10.1,10.1 0,4.8 3.4,8.8 7.9,9.8 v 36.9 c 0,0.6 0.3,1.2 0.8,1.6 0.3,0.2 0.7,0.3 1.1,0.3 0.2,0 0.5,0 0.7,-0.1 l 14.8,-5.6 c 1,1.5 2.5,2.5 4.3,3 v 17.4 c -7.5,9.2 -16.8,17.5 -26.7,24.9 l -11.3,-26.2 c 2.1,-1.4 3.5,-3.7 3.5,-6.4 0,-4.2 -3.4,-7.7 -7.7,-7.7 -4.2,0 -7.7,3.4 -7.7,7.7 0,4.2 3.4,7.7 7.7,7.7 0.1,0 0.3,0 0.4,0 l 11.8,27.3 c -6.9,5 -14,9.5 -21,13.6 L 243.2,223 c -0.4,-0.1 -0.8,-0.1 -1.2,0.1 l -10,3.9 c -1.4,-1.9 -3.6,-3.1 -6.2,-3.1 -4.2,0 -7.7,3.4 -7.7,7.7 0,4.2 3.4,7.7 7.7,7.7 4.2,0 7.7,-3.4 7.7,-7.7 0,-0.3 -0.1,-0.6 -0.1,-0.9 l 9.4,-3.7 29.3,8.8 c -25,14 -47.4,22.1 -51.1,23.4 l -1.8,0.6 c -1.6,-1.2 -3.6,-1.9 -5.8,-1.9 -0.1,0 -0.2,0 -0.3,0 -4.7,-11.1 -7.1,-23.2 -7.1,-35.3 0,-6 0.6,-11.9 1.7,-17.6 h 43.9 c 0.9,3.3 3.8,5.7 7.4,5.7 4.2,0 7.7,-3.4 7.7,-7.7 0,-4.2 -3.4,-7.7 -7.7,-7.7 -3.6,0 -6.5,2.4 -7.4,5.7 h -43 c 8.1,-32.9 34.1,-59.2 67.7,-67 1.8,2.9 5,4.9 8.6,4.9 5.6,0 10.1,-4.5 10.1,-10.1 0,-5.6 -4.5,-10.1 -10.1,-10.1 -4.9,0 -8.9,3.5 -9.9,8 -44.1,10 -76.4,49.7 -76.4,95.7 0,13.1 2.6,26.2 7.7,38.2 -1.9,1.8 -3,4.4 -3,7.2 0,4.5 2.9,8.2 6.9,9.6 v 39.4 c 0,0.7 0.2,1.4 0.6,2 l 2.2,1.5 29.9,21.1 v 25.2 c 0,2.1 1.7,3.8 3.8,3.8 h 100 c 2.1,0 3.8,-1.7 3.8,-3.8 v -25.2 l 30,-21.1 2.2,-1.6 c 0.4,-0.6 0.6,-1.3 0.6,-2 V 277 c 3.7,-1.5 6.3,-5.1 6.3,-9.3 0,-2.6 -1,-5 -2.6,-6.8 5.3,-11.9 8,-25.1 8,-38.4 z M 281.4,125.6 c 0.9,-1 2.2,-1.6 3.6,-1.6 2.7,0 4.9,2.2 4.9,4.9 0,2.7 -2.2,4.9 -4.9,4.9 -1,0 -1.9,-0.3 -2.7,-0.8 -1.3,-0.9 -2.2,-2.4 -2.2,-4 0,-1.4 0.5,-2.6 1.3,-3.4 z m 22,3.2 c 0,-2.7 2.2,-4.9 4.9,-4.9 1.4,0 2.6,0.6 3.5,1.5 0.8,0.9 1.3,2 1.3,3.3 0,1.6 -0.8,3.1 -2.1,4 -0.8,0.6 -1.7,0.9 -2.8,0.9 -2.6,0.1 -4.8,-2.1 -4.8,-4.8 z m 18.8,38.5 c 0,0.3 0.1,0.5 0.1,0.7 l -12.2,4.6 v -34 c 3,-0.5 5.5,-2.3 6.9,-4.8 10.7,2.4 20.7,6.7 29.6,12.6 -0.1,14.8 -5.8,28.4 -14.8,40.7 v -12.4 c 3.3,-0.9 5.7,-3.8 5.7,-7.4 0,-4.2 -3.4,-7.7 -7.7,-7.7 -4.2,0.1 -7.6,3.5 -7.6,7.7 z M 213.5,272.7 c -1.2,0 -2.3,-0.5 -3.2,-1.2 -1,-0.9 -1.7,-2.2 -1.7,-3.6 0,-0.6 0.1,-1.2 0.3,-1.7 0.7,-1.8 2.5,-3.1 4.5,-3.1 0.9,0 1.7,0.3 2.4,0.7 1.4,0.8 2.4,2.4 2.4,4.2 0,0.9 -0.3,1.7 -0.7,2.4 -0.7,1.4 -2.2,2.3 -4,2.3 z m 170,-1.9 c -0.9,1.1 -2.3,1.9 -3.8,1.9 -1.4,0 -2.6,-0.6 -3.5,-1.5 -0.8,-0.9 -1.3,-2 -1.3,-3.3 0,-2.1 1.3,-3.9 3.2,-4.5 0.5,-0.2 1.1,-0.3 1.7,-0.3 2.3,0 4.3,1.7 4.8,3.9 0.1,0.3 0.1,0.6 0.1,1 -0.2,1 -0.6,2 -1.2,2.8 z m -3,-13 c -0.3,0 -0.6,0 -0.9,0 -5.6,0 -10.1,4.5 -10.1,10.1 0,4.3 2.7,8 6.6,9.4 v 36.8 l -31.5,22.2 c -1,0.7 -1.6,1.9 -1.6,3.1 v 21.2 c 0,1.2 -1,2.2 -2.2,2.2 h -11.7 c -1.2,0 -2.2,-1 -2.2,-2.2 V 353 c 0,-2 -1.4,-3.8 -3.4,-4 -2.3,-0.2 -4.2,1.6 -4.2,3.8 v 7.9 c 0,1.2 -1,2.2 -2.2,2.2 h -14.3 c -1.2,0 -2.2,-1 -2.2,-2.2 V 349 c 0,-2 -1.4,-3.8 -3.4,-4 -2.3,-0.2 -4.2,1.6 -4.2,3.8 v 12 c 0,1.2 -1,2.2 -2.2,2.2 h -14.3 c -1.2,0 -2.2,-1 -2.2,-2.2 V 353 c 0,-2 -1.4,-3.8 -3.4,-4 -2.3,-0.2 -4.2,1.6 -4.2,3.8 v 7.9 c 0,1.2 -1,2.2 -2.2,2.2 h -11.7 c -1.2,0 -2.2,-1 -2.2,-2.2 v -21.2 c 0,-1.2 -0.6,-2.4 -1.6,-3.1 L 217.6,314.2 V 277 c 3.5,-1.6 5.9,-5.1 5.9,-9.2 0,-0.6 -0.1,-1.2 -0.2,-1.8 4,-1.4 34.5,-12.3 64.5,-31 40.6,-25.3 63.1,-54 65.7,-83.5 17.5,14.1 29.6,34.5 33.1,57.4 -0.5,50.1 -87.8,81 -88.7,81.3 -0.2,0.1 -0.7,0.2 -1.1,0.4 -1.1,-0.2 -2.2,-0.4 -3.4,-0.6 -0.8,-0.2 -1.7,-0.3 -2.5,-0.5 -1.3,-0.2 -2.6,-0.5 -3.9,-0.8 -0.2,-0.1 -0.5,-0.1 -0.7,-0.1 -0.5,-0.1 -1,-0.2 -1.5,-0.3 -0.6,-0.1 -1.2,-0.3 -1.8,-0.4 -1.4,-0.3 -2.8,-0.6 -4.1,-1 -2.5,-0.6 -4.9,-1.3 -7.3,-1.9 -2.3,-0.7 -4.7,-1.3 -6.9,-2 -0.1,0 -0.1,0 -0.2,0 -1.7,-0.5 -3.3,-1 -4.9,-1.6 -0.5,-0.2 -1.1,-0.4 -1.6,-0.5 -0.8,-0.3 -1.5,-0.5 -2.2,-0.7 -1.3,-0.4 -2.5,-0.8 -3.6,-1.3 0,0 -0.1,0 -0.1,0 -1.8,-0.6 -3.4,-1.2 -4.8,-1.8 -1.5,-0.6 -2.8,-1.1 -3.8,-1.5 -1,-0.5 -1.9,-0.8 -2.4,-1.1 -0.6,-0.3 -0.9,-0.4 -0.9,-0.4 0,0 0.2,0.3 0.6,0.7 0.4,0.5 1,1.2 1.9,2 0.8,0.8 1.9,1.8 3.2,2.8 1.3,1 2.8,2.1 4.4,3.2 0,0 0,0 0.1,0 -0.6,2 -1,4.2 -1,6.4 0,11.5 9.4,20.9 20.9,20.9 8.9,0 16.5,-5.6 19.5,-13.5 1,0.1 2.1,0.2 3.1,0.3 1.8,0.1 3.5,0.1 5.1,0.1 0.1,0 0.2,0.1 0.3,0.1 l 16.9,17.2 c 4.3,4.3 11,5 16,1.7 l 26.4,-14.8 c 2.3,-1.5 3.8,-4.1 3.8,-6.9 v -30.4 c 10.2,-8.1 19.4,-17.7 25.4,-28.6 -1.1,7.9 -3.2,15.4 -6.3,22.5 z m -98.8,37.8 c -0.4,0.8 -1,1.6 -1.5,2.3 v 0 c -2.4,2.8 -6,4.6 -10,4.6 -4,0 -7.6,-1.8 -10,-4.6 -2,-2.3 -3.1,-5.3 -3.1,-8.5 0,-0.8 0.1,-1.5 0.2,-2.3 0,0 0,0 0,0 1.6,0.8 3.3,1.6 5,2.4 2.3,1 4.7,2 7.2,2.8 2.5,0.9 5.1,1.6 7.7,2.3 1.5,0.4 3,0.7 4.5,1 z"/>
	</g>
</svg>